<svg width="166" height="38" viewBox="0 0 166 38" fill="none" xmlns="http://www.w3.org/2000/svg">
<path fill-rule="evenodd" clip-rule="evenodd" d="M148.922 0C153.478 0.0694966 157.82 1.94562 160.994 5.21586C164.167 8.4861 165.912 12.8827 165.844 17.439C165.912 21.9953 164.167 26.3919 160.994 29.6621C157.82 32.9324 153.478 34.8085 148.922 34.878C148.623 34.878 148.325 34.87 148.029 34.854V34.878L138.7 38L139.843 32.156C137.418 30.5455 135.432 28.3572 134.062 25.7882C132.693 23.2192 131.985 20.35 132 17.439C131.932 12.8827 133.677 8.4861 136.85 5.21586C140.024 1.94562 144.366 0.0694966 148.922 0ZM147.438 15.437H142.688V27.313H147.438V15.437ZM154.393 8.906H149.813V27.313H154.393V19.132H156.938V14.532H154.393V8.906ZM147.438 8.906H142.688V13.656H147.438V8.906Z" fill="#4CC5D2"/>
<path d="M9.492 36.976H9.706C10.52 36.9793 11.3109 36.7051 11.9482 36.1986C12.5855 35.6922 13.0313 34.9837 13.212 34.19L16.889 22.617L20.523 34.19C20.7037 34.9837 21.1495 35.6922 21.7868 36.1986C22.4241 36.7051 23.215 36.9793 24.029 36.976H24.243C25.825 36.976 27.151 36.076 27.835 34.061L33.607 17.644C33.7301 17.2109 33.8019 16.7648 33.821 16.315C33.8262 15.9165 33.751 15.5211 33.5998 15.1524C33.4487 14.7837 33.2246 14.4493 32.9412 14.1692C32.6577 13.8891 32.3207 13.669 31.9502 13.5223C31.5797 13.3755 31.1834 13.305 30.785 13.315C30.0597 13.3118 29.355 13.5562 28.7875 14.0079C28.22 14.4596 27.8236 15.0915 27.664 15.799L24.073 27.546L20.438 15.887C20.2551 15.1401 19.8266 14.4763 19.2213 14.0021C18.616 13.5279 17.8689 13.2708 17.1 13.272H16.715C15.9466 13.2715 15.2002 13.5289 14.5955 14.003C13.9908 14.4772 13.5628 15.1406 13.38 15.887L9.792 27.499L6.285 15.844C6.12276 15.126 5.72118 14.4846 5.14621 14.025C4.57124 13.5654 3.85707 13.3151 3.121 13.315C2.72057 13.2988 2.32094 13.363 1.94573 13.5038C1.57052 13.6446 1.22732 13.8591 0.936395 14.1348C0.645473 14.4104 0.412727 14.7415 0.251897 15.1086C0.0910682 15.4757 0.00541667 15.8713 0 16.272C0.021545 16.8125 0.122631 17.3469 0.3 17.858L5.9 34.058C6.585 36.076 7.91 36.976 9.492 36.976ZM39.292 23.259C39.805 20.301 41.558 18.372 44.252 18.372C46.989 18.372 48.699 20.344 49.084 23.259H39.292ZM52.842 34.275C53.1134 34.0327 53.3301 33.7353 53.4775 33.4027C53.6249 33.0701 53.6997 32.7098 53.697 32.346C53.7084 32.0093 53.6513 31.6738 53.5292 31.3598C53.4071 31.0458 53.2225 30.7599 52.9865 30.5195C52.7506 30.279 52.4683 30.0889 52.1568 29.9607C51.8452 29.8326 51.5109 29.7691 51.174 29.774C50.6479 29.7538 50.1297 29.9077 49.7 30.212L49.592 30.288C48.2675 31.3023 46.6422 31.8454 44.974 31.831C43.647 31.9169 42.3359 31.5025 41.2993 30.6695C40.2627 29.8366 39.5758 28.6454 39.374 27.331H52.244C52.6535 27.3407 53.0606 27.2656 53.4397 27.1104C53.8188 26.9551 54.1616 26.7231 54.4467 26.429C54.7317 26.1348 54.9528 25.7848 55.0961 25.401C55.2393 25.0173 55.3016 24.608 55.279 24.199C55.279 19.441 51.901 13.14 44.247 13.14C37.647 13.14 33.015 18.428 32.918 24.892V25.184C32.918 32.214 38.006 37.057 44.89 37.057C47.7918 37.1344 50.6213 36.1445 52.842 34.275ZM62.113 23.259C62.626 20.301 64.379 18.372 67.073 18.372C69.81 18.372 71.52 20.344 71.905 23.259H62.113ZM75.667 34.275C75.9384 34.0327 76.1551 33.7353 76.3025 33.4027C76.4499 33.0701 76.5248 32.7098 76.522 32.346C76.5333 32.0095 76.4761 31.6742 76.354 31.3604C76.2319 31.0466 76.0473 30.7608 75.8115 30.5205C75.5757 30.2801 75.2936 30.0901 74.9822 29.9619C74.6708 29.8338 74.3367 29.7702 74 29.775C73.4739 29.7548 72.9557 29.9087 72.526 30.213L72.418 30.289C71.0935 31.3033 69.4682 31.8464 67.8 31.832C66.473 31.9179 65.1619 31.5035 64.1253 30.6705C63.0887 29.8376 62.4018 28.6464 62.2 27.332H75.07C75.4792 27.341 75.8858 27.2654 76.2644 27.1098C76.6429 26.9542 76.9852 26.722 77.2698 26.4277C77.5543 26.1335 77.7749 25.7837 77.9178 25.4001C78.0607 25.0166 78.1227 24.6077 78.1 24.199C78.1 19.441 74.722 13.14 67.068 13.14C60.468 13.14 55.836 18.428 55.739 24.892V25.184C55.739 32.214 60.827 37.057 67.711 37.057C70.6142 37.1353 73.4452 36.1454 75.667 34.275ZM102.726 8.256C102.726 7.39405 102.384 6.5674 101.774 5.9579C101.165 5.34841 100.338 5.006 99.476 5.006C98.614 5.006 97.7874 5.34841 97.1779 5.9579C96.5684 6.5674 96.226 7.39405 96.226 8.256V16.572C95.3869 15.4817 94.3037 14.6034 93.0635 14.0079C91.8232 13.4124 90.4606 13.1161 89.085 13.143C83.714 13.143 78.761 17.253 78.654 24.767V25.102C78.654 32.775 83.742 36.975 89.087 36.975C90.4942 37.0005 91.8854 36.6725 93.133 36.0211C94.3806 35.3696 95.4448 34.4154 96.228 33.246V33.546C96.228 34.408 96.5704 35.2346 97.1799 35.8441C97.7894 36.4536 98.616 36.796 99.478 36.796C100.34 36.796 101.167 36.4536 101.776 35.8441C102.386 35.2346 102.728 34.408 102.728 33.546L102.726 8.256ZM90.754 18.673C93.738 18.673 96.227 21.117 96.31 24.824V25.103C96.31 28.918 93.787 31.447 90.751 31.447C87.766 31.447 85.235 29.002 85.151 25.293V25.018C85.152 21.159 87.718 18.673 90.754 18.673ZM116.4 37.061C123.468 37.061 128.734 31.812 128.841 25.304V25.017C128.841 18.417 123.582 13.144 116.484 13.144C109.416 13.144 104.15 18.393 104.043 24.901V25.188C104.044 31.789 109.3 37.061 116.4 37.061ZM116.486 31.446C115.684 31.4387 114.891 31.2728 114.153 30.9579C113.415 30.643 112.747 30.1853 112.187 29.611C111.627 29.0368 111.186 28.3575 110.889 27.6121C110.593 26.8668 110.446 26.0701 110.459 25.268V25.016C110.459 21.63 112.682 18.758 116.402 18.758C117.204 18.7653 117.997 18.9312 118.735 19.2461C119.473 19.561 120.141 20.0187 120.701 20.593C121.261 21.1672 121.702 21.8465 121.999 22.5919C122.295 23.3372 122.442 24.1339 122.429 24.936V25.188C122.43 28.574 120.206 31.446 116.486 31.446Z" fill="black"/>
</svg>
