<svg xmlns="http://www.w3.org/2000/svg" width="128.844" height="32.063" viewBox="0 0 128.844 32.063">
  <g id="Page-1" transform="translate(0 -5.938)">
    <g id="Group-3">
      <path id="weedo" d="M9.492,61.977h.214a3.581,3.581,0,0,0,3.506-2.786l3.677-11.573,3.634,11.573a3.581,3.581,0,0,0,3.506,2.786h.214c1.582,0,2.908-.9,3.592-2.915l5.772-16.417a5.755,5.755,0,0,0,.214-1.329,2.962,2.962,0,0,0-3.036-3A3.185,3.185,0,0,0,27.664,40.8L24.073,52.547,20.438,40.888A3.431,3.431,0,0,0,17.1,38.273h-.385a3.431,3.431,0,0,0-3.335,2.615L9.792,52.5,6.285,40.845a3.244,3.244,0,0,0-3.164-2.529A3,3,0,0,0,0,41.273a5.506,5.506,0,0,0,.3,1.586l5.6,16.2C6.585,61.077,7.91,61.977,9.492,61.977Zm29.8-13.717c.513-2.958,2.266-4.887,4.96-4.887,2.737,0,4.447,1.972,4.832,4.887ZM52.842,59.276a2.56,2.56,0,0,0,.855-1.929,2.488,2.488,0,0,0-2.523-2.572,2.392,2.392,0,0,0-1.474.438l-.108.076a7.489,7.489,0,0,1-4.618,1.543,5.318,5.318,0,0,1-5.6-4.5h12.87A2.969,2.969,0,0,0,55.279,49.2c0-4.758-3.378-11.059-11.032-11.059-6.6,0-11.232,5.288-11.329,11.752l0,.292c0,7.03,5.088,11.873,11.972,11.873A11.857,11.857,0,0,0,52.842,59.276ZM62.113,48.26c.513-2.958,2.266-4.887,4.96-4.887,2.737,0,4.447,1.972,4.832,4.887ZM75.667,59.276a2.56,2.56,0,0,0,.855-1.929A2.488,2.488,0,0,0,74,54.776a2.392,2.392,0,0,0-1.474.438l-.108.076A7.489,7.489,0,0,1,67.8,56.833a5.318,5.318,0,0,1-5.6-4.5h12.87A2.969,2.969,0,0,0,78.1,49.2c0-4.758-3.378-11.059-11.032-11.059-6.6,0-11.232,5.288-11.329,11.752l0,.292c0,7.03,5.088,11.873,11.972,11.873A11.857,11.857,0,0,0,75.667,59.276Zm27.059-26.019a3.25,3.25,0,1,0-6.5,0v8.316a8.794,8.794,0,0,0-7.141-3.429c-5.371,0-10.324,4.11-10.431,11.624l0,.335c0,7.673,5.088,11.873,10.433,11.873a8.411,8.411,0,0,0,7.141-3.729v.3a3.25,3.25,0,1,0,6.5,0ZM90.754,43.674c2.984,0,5.473,2.444,5.556,6.151l0,.279c0,3.815-2.523,6.344-5.559,6.344-2.985,0-5.516-2.445-5.6-6.154l0-.275C85.152,46.16,87.718,43.674,90.754,43.674ZM116.4,62.062c7.068,0,12.334-5.249,12.441-11.757l0-.287c0-6.6-5.259-11.873-12.357-11.873-7.068,0-12.334,5.249-12.441,11.757l0,.287C104.044,56.79,109.3,62.062,116.4,62.062Zm.086-5.615a6.083,6.083,0,0,1-6.027-6.178l0-.252c0-3.386,2.223-6.258,5.943-6.258a6.083,6.083,0,0,1,6.027,6.178l0,.252C122.43,53.575,120.207,56.447,116.487,56.447Z" transform="translate(0 -24.063)"/>
    </g>
  </g>
</svg>